<mxfile host="app.diagrams.net" modified="2023-12-01T04:36:42.816Z" agent="Mozilla/5.0 (Windows NT 10.0; Win64; x64) AppleWebKit/537.36 (KHTML, like Gecko) Chrome/119.0.0.0 Safari/537.36" etag="k578d31O4ekEFIcP92CX" version="22.1.5" type="github">
  <diagram name="Page-1" id="B-IUG-HJ5yhlzBLEB0xl">
    <mxGraphModel dx="1634" dy="902" grid="1" gridSize="10" guides="1" tooltips="1" connect="1" arrows="1" fold="1" page="1" pageScale="1" pageWidth="850" pageHeight="1100" math="0" shadow="0">
      <root>
        <mxCell id="0" />
        <mxCell id="1" parent="0" />
        <mxCell id="3baLyf1vGUaQpCWa6eFp-4" value="" style="edgeStyle=orthogonalEdgeStyle;rounded=0;orthogonalLoop=1;jettySize=auto;html=1;" edge="1" parent="1" source="3baLyf1vGUaQpCWa6eFp-1" target="3baLyf1vGUaQpCWa6eFp-2">
          <mxGeometry relative="1" as="geometry" />
        </mxCell>
        <mxCell id="3baLyf1vGUaQpCWa6eFp-1" value="Landing Page&lt;br&gt;&lt;br&gt;with&amp;nbsp;&lt;br&gt;&lt;br&gt;Invite Confirmation&amp;nbsp;&lt;br&gt;and&lt;br&gt;Log in" style="whiteSpace=wrap;html=1;aspect=fixed;" vertex="1" parent="1">
          <mxGeometry x="590" y="475" width="250" height="250" as="geometry" />
        </mxCell>
        <mxCell id="3baLyf1vGUaQpCWa6eFp-6" value="" style="edgeStyle=orthogonalEdgeStyle;rounded=0;orthogonalLoop=1;jettySize=auto;html=1;" edge="1" parent="1" source="3baLyf1vGUaQpCWa6eFp-2" target="3baLyf1vGUaQpCWa6eFp-5">
          <mxGeometry relative="1" as="geometry" />
        </mxCell>
        <mxCell id="3baLyf1vGUaQpCWa6eFp-2" value="Welcome Page" style="whiteSpace=wrap;html=1;aspect=fixed;" vertex="1" parent="1">
          <mxGeometry x="940" y="470" width="260" height="260" as="geometry" />
        </mxCell>
        <mxCell id="3baLyf1vGUaQpCWa6eFp-23" value="" style="edgeStyle=orthogonalEdgeStyle;rounded=0;orthogonalLoop=1;jettySize=auto;html=1;" edge="1" parent="1" source="3baLyf1vGUaQpCWa6eFp-5" target="3baLyf1vGUaQpCWa6eFp-22">
          <mxGeometry relative="1" as="geometry" />
        </mxCell>
        <mxCell id="3baLyf1vGUaQpCWa6eFp-39" value="" style="edgeStyle=orthogonalEdgeStyle;rounded=0;orthogonalLoop=1;jettySize=auto;html=1;" edge="1" parent="1" source="3baLyf1vGUaQpCWa6eFp-5" target="3baLyf1vGUaQpCWa6eFp-38">
          <mxGeometry relative="1" as="geometry" />
        </mxCell>
        <mxCell id="3baLyf1vGUaQpCWa6eFp-5" value="Wedding Website&lt;br&gt;with&lt;br&gt;Information&lt;br&gt;&lt;br&gt;Render Images" style="whiteSpace=wrap;html=1;aspect=fixed;" vertex="1" parent="1">
          <mxGeometry x="1280" y="470" width="260" height="260" as="geometry" />
        </mxCell>
        <mxCell id="3baLyf1vGUaQpCWa6eFp-8" style="edgeStyle=orthogonalEdgeStyle;rounded=0;orthogonalLoop=1;jettySize=auto;html=1;" edge="1" parent="1" source="3baLyf1vGUaQpCWa6eFp-7" target="3baLyf1vGUaQpCWa6eFp-11">
          <mxGeometry relative="1" as="geometry">
            <mxPoint x="145" y="310" as="targetPoint" />
          </mxGeometry>
        </mxCell>
        <mxCell id="3baLyf1vGUaQpCWa6eFp-20" value="" style="edgeStyle=orthogonalEdgeStyle;rounded=0;orthogonalLoop=1;jettySize=auto;html=1;" edge="1" parent="1" source="3baLyf1vGUaQpCWa6eFp-7" target="3baLyf1vGUaQpCWa6eFp-19">
          <mxGeometry relative="1" as="geometry" />
        </mxCell>
        <mxCell id="3baLyf1vGUaQpCWa6eFp-28" style="edgeStyle=orthogonalEdgeStyle;rounded=0;orthogonalLoop=1;jettySize=auto;html=1;" edge="1" parent="1" source="3baLyf1vGUaQpCWa6eFp-7" target="3baLyf1vGUaQpCWa6eFp-29">
          <mxGeometry relative="1" as="geometry">
            <mxPoint x="1811.764705882353" y="590" as="targetPoint" />
            <Array as="points">
              <mxPoint x="575" y="270" />
              <mxPoint x="2080" y="270" />
              <mxPoint x="2080" y="640" />
            </Array>
          </mxGeometry>
        </mxCell>
        <mxCell id="3baLyf1vGUaQpCWa6eFp-7" value="Guest List in DB" style="whiteSpace=wrap;html=1;aspect=fixed;" vertex="1" parent="1">
          <mxGeometry x="490" y="30" width="170" height="170" as="geometry" />
        </mxCell>
        <mxCell id="3baLyf1vGUaQpCWa6eFp-13" value="" style="edgeStyle=orthogonalEdgeStyle;rounded=0;orthogonalLoop=1;jettySize=auto;html=1;" edge="1" parent="1" source="3baLyf1vGUaQpCWa6eFp-11" target="3baLyf1vGUaQpCWa6eFp-12">
          <mxGeometry relative="1" as="geometry" />
        </mxCell>
        <mxCell id="3baLyf1vGUaQpCWa6eFp-11" value="Send out Invite" style="ellipse;whiteSpace=wrap;html=1;aspect=fixed;" vertex="1" parent="1">
          <mxGeometry x="105" y="270" width="80" height="80" as="geometry" />
        </mxCell>
        <mxCell id="3baLyf1vGUaQpCWa6eFp-17" value="" style="edgeStyle=orthogonalEdgeStyle;rounded=0;orthogonalLoop=1;jettySize=auto;html=1;" edge="1" parent="1" source="3baLyf1vGUaQpCWa6eFp-12" target="3baLyf1vGUaQpCWa6eFp-16">
          <mxGeometry relative="1" as="geometry" />
        </mxCell>
        <mxCell id="3baLyf1vGUaQpCWa6eFp-12" value="Invite Image / QR Code" style="whiteSpace=wrap;html=1;" vertex="1" parent="1">
          <mxGeometry x="5" y="440" width="280" height="140" as="geometry" />
        </mxCell>
        <mxCell id="3baLyf1vGUaQpCWa6eFp-18" value="" style="edgeStyle=orthogonalEdgeStyle;rounded=0;orthogonalLoop=1;jettySize=auto;html=1;" edge="1" parent="1" source="3baLyf1vGUaQpCWa6eFp-16" target="3baLyf1vGUaQpCWa6eFp-1">
          <mxGeometry relative="1" as="geometry" />
        </mxCell>
        <mxCell id="3baLyf1vGUaQpCWa6eFp-16" value="Unique Code" style="ellipse;whiteSpace=wrap;html=1;aspect=fixed;" vertex="1" parent="1">
          <mxGeometry x="400" y="480" width="80" height="80" as="geometry" />
        </mxCell>
        <mxCell id="3baLyf1vGUaQpCWa6eFp-21" value="" style="edgeStyle=orthogonalEdgeStyle;rounded=0;orthogonalLoop=1;jettySize=auto;html=1;" edge="1" parent="1" source="3baLyf1vGUaQpCWa6eFp-19" target="3baLyf1vGUaQpCWa6eFp-1">
          <mxGeometry relative="1" as="geometry" />
        </mxCell>
        <mxCell id="3baLyf1vGUaQpCWa6eFp-19" value="Match Code with Guest" style="ellipse;whiteSpace=wrap;html=1;" vertex="1" parent="1">
          <mxGeometry x="650" y="290" width="80" height="80" as="geometry" />
        </mxCell>
        <mxCell id="3baLyf1vGUaQpCWa6eFp-25" value="" style="edgeStyle=orthogonalEdgeStyle;rounded=0;orthogonalLoop=1;jettySize=auto;html=1;" edge="1" parent="1" source="3baLyf1vGUaQpCWa6eFp-22" target="3baLyf1vGUaQpCWa6eFp-24">
          <mxGeometry relative="1" as="geometry" />
        </mxCell>
        <mxCell id="3baLyf1vGUaQpCWa6eFp-22" value="Allow users to upload image" style="whiteSpace=wrap;html=1;aspect=fixed;" vertex="1" parent="1">
          <mxGeometry x="1280" y="810" width="260" height="260" as="geometry" />
        </mxCell>
        <mxCell id="3baLyf1vGUaQpCWa6eFp-31" style="edgeStyle=orthogonalEdgeStyle;rounded=0;orthogonalLoop=1;jettySize=auto;html=1;entryX=0.5;entryY=1;entryDx=0;entryDy=0;" edge="1" parent="1" source="3baLyf1vGUaQpCWa6eFp-24" target="3baLyf1vGUaQpCWa6eFp-29">
          <mxGeometry relative="1" as="geometry" />
        </mxCell>
        <mxCell id="3baLyf1vGUaQpCWa6eFp-24" value="CRUD" style="ellipse;whiteSpace=wrap;html=1;" vertex="1" parent="1">
          <mxGeometry x="2045" y="900" width="80" height="80" as="geometry" />
        </mxCell>
        <mxCell id="3baLyf1vGUaQpCWa6eFp-30" style="edgeStyle=orthogonalEdgeStyle;rounded=0;orthogonalLoop=1;jettySize=auto;html=1;entryX=0.5;entryY=0;entryDx=0;entryDy=0;" edge="1" parent="1" source="3baLyf1vGUaQpCWa6eFp-26" target="3baLyf1vGUaQpCWa6eFp-29">
          <mxGeometry relative="1" as="geometry" />
        </mxCell>
        <mxCell id="3baLyf1vGUaQpCWa6eFp-34" value="" style="edgeStyle=orthogonalEdgeStyle;rounded=0;orthogonalLoop=1;jettySize=auto;html=1;entryX=1;entryY=0.5;entryDx=0;entryDy=0;" edge="1" parent="1" source="3baLyf1vGUaQpCWa6eFp-26" target="3baLyf1vGUaQpCWa6eFp-33">
          <mxGeometry relative="1" as="geometry">
            <mxPoint x="2045" y="170" as="targetPoint" />
          </mxGeometry>
        </mxCell>
        <mxCell id="3baLyf1vGUaQpCWa6eFp-26" value="S3 Bucket to store images" style="whiteSpace=wrap;html=1;" vertex="1" parent="1">
          <mxGeometry x="2230" y="30" width="290" height="270" as="geometry" />
        </mxCell>
        <mxCell id="3baLyf1vGUaQpCWa6eFp-29" value="Match User Credentials" style="ellipse;whiteSpace=wrap;html=1;aspect=fixed;" vertex="1" parent="1">
          <mxGeometry x="2335.004705882353" y="605" width="80" height="80" as="geometry" />
        </mxCell>
        <mxCell id="3baLyf1vGUaQpCWa6eFp-35" style="edgeStyle=orthogonalEdgeStyle;rounded=0;orthogonalLoop=1;jettySize=auto;html=1;entryX=0.5;entryY=0;entryDx=0;entryDy=0;" edge="1" parent="1" source="3baLyf1vGUaQpCWa6eFp-33" target="3baLyf1vGUaQpCWa6eFp-5">
          <mxGeometry relative="1" as="geometry" />
        </mxCell>
        <mxCell id="3baLyf1vGUaQpCWa6eFp-33" value="CRUD" style="ellipse;whiteSpace=wrap;html=1;" vertex="1" parent="1">
          <mxGeometry x="1655" y="125" width="80" height="80" as="geometry" />
        </mxCell>
        <mxCell id="3baLyf1vGUaQpCWa6eFp-45" value="" style="edgeStyle=orthogonalEdgeStyle;rounded=0;orthogonalLoop=1;jettySize=auto;html=1;" edge="1" parent="1" source="3baLyf1vGUaQpCWa6eFp-38" target="3baLyf1vGUaQpCWa6eFp-44">
          <mxGeometry relative="1" as="geometry" />
        </mxCell>
        <mxCell id="3baLyf1vGUaQpCWa6eFp-38" value="QR Code for &lt;br&gt;Honeymoon Registry" style="whiteSpace=wrap;html=1;aspect=fixed;" vertex="1" parent="1">
          <mxGeometry x="1620" y="470" width="260" height="260" as="geometry" />
        </mxCell>
        <mxCell id="3baLyf1vGUaQpCWa6eFp-44" value="Bank/Paypal/Venmo" style="whiteSpace=wrap;html=1;aspect=fixed;" vertex="1" parent="1">
          <mxGeometry x="1620" y="1020" width="260" height="260" as="geometry" />
        </mxCell>
      </root>
    </mxGraphModel>
  </diagram>
</mxfile>
